<svg xmlns="http://www.w3.org/2000/svg" viewBox="0 0 48 48"><defs><style>.cls-1{fill:#201602;}</style></defs><title>Asset 33ldpi</title><g id="Layer_2" data-name="Layer 2"><g id="layer_1-2" data-name="layer 1"><path class="cls-1" d="M1,36a.91.91,0,0,1-.23,0A1,1,0,0,1,0,35,27,27,0,0,1,27,8h3V1A1,1,0,0,1,31.6.2l16,12a1,1,0,0,1,0,1.6l-16,12A1,1,0,0,1,30,25V18H27.3A26.84,26.84,0,0,0,3.16,32.93L1.89,35.45A1,1,0,0,1,1,36ZM27,10A25,25,0,0,0,2.51,30,28.84,28.84,0,0,1,27.3,16H31a1,1,0,0,1,1,1v6L45.33,13,32,3V9a1,1,0,0,1-1,1Z"/><path class="cls-1" d="M41,48H1a1,1,0,0,1-1-1V38H2v8H40V24H38V22h3a1,1,0,0,1,1,1V47A1,1,0,0,1,41,48Z"/><rect class="cls-1" x="15" y="22" width="14" height="2"/><path class="cls-1" d="M32,39a4,4,0,1,1,4-4A4,4,0,0,1,32,39Zm0-6a2,2,0,1,0,2,2A2,2,0,0,0,32,33Z"/><path class="cls-1" d="M10,39a4,4,0,1,1,4-4A4,4,0,0,1,10,39Zm0-6a2,2,0,1,0,2,2A2,2,0,0,0,10,33Z"/><path class="cls-1" d="M21,42a4,4,0,0,1-4-4h2a2,2,0,1,0,2-2,4,4,0,1,1,4-4H23a2,2,0,1,0-2,2,4,4,0,0,1,0,8Z"/><rect class="cls-1" x="20" y="41" width="2" height="3"/><rect class="cls-1" x="20" y="26" width="2" height="3"/><rect class="cls-1" x="4" y="42" width="2" height="2"/><rect class="cls-1" x="36" y="26" width="2" height="2"/><rect class="cls-1" x="36" y="42" width="2" height="2"/></g></g></svg>