<svg width="497" height="497" viewBox="0 0 497 497" fill="none" xmlns="http://www.w3.org/2000/svg">
<g opacity="0.12">
<path d="M378 106.5C385.3 106.5 391.3 112.5 391.3 119.8V315.5C391.3 322.8 385.4 328.8 378 328.8H312.1H187.3H118.2C110.9 328.8 104.9 322.8 104.9 315.5V119.8C104.9 112.5 110.8 106.5 118.2 106.5H378Z" fill="black"/>
<path d="M337.3 383.1V397.5H158.9V385.7C159.2 383.1 165.6 376.3 191.6 376.3C200.6 376.3 206.5 373.6 209 368.4C213.9 358.3 203.8 341.9 198.2 334H302C296.5 342.4 285.9 360.7 290.8 370.3C292.8 374.3 296.9 376.3 303 376.3C323.6 376.3 334.2 381.3 337.3 383.1Z" fill="black"/>
</g>
<path d="M378 98.7C385.3 98.7 391.3 104.7 391.3 112V307.7C391.3 315 385.4 321 378 321H312.1H187.3H118.2C110.9 321 104.9 315 104.9 307.7V111.9C104.9 104.6 110.8 98.6 118.2 98.6H378V98.7Z" fill="black"/>
<path d="M337.3 375.2V389.6H158.9V377.8C159.2 375.2 165.6 368.4 191.6 368.4C200.6 368.4 206.5 365.7 209 360.5C213.9 350.4 203.8 334 198.2 326.1H302C296.5 334.5 285.9 352.8 290.8 362.4C292.8 366.4 296.9 368.4 303 368.4C323.6 368.4 334.2 373.4 337.3 375.2Z" fill="black"/>
<g opacity="0.12">
<path d="M376.7 108.7H111.6V283H376.7V108.7Z" fill="black"/>
</g>
<path d="M380.6 112.7H115.5V287H380.6V112.7Z" fill="white"/>
<path d="M249.4 302.5C251.7 302.5 253.6 304.4 253.6 306.7C253.6 309 251.7 310.9 249.4 310.9C247.1 310.9 245.2 309 245.2 306.7C245.2 304.4 247.1 302.5 249.4 302.5Z" fill="#F2E8DC"/>
<path d="M234.6 302.5C236.9 302.5 238.8 304.4 238.8 306.7C238.8 309 236.9 310.9 234.6 310.9C232.3 310.9 230.4 309 230.4 306.7C230.3 304.4 232.3 302.5 234.6 302.5Z" fill="#F2E8DC"/>
<path d="M264.2 302.5C266.5 302.5 268.4 304.4 268.4 306.7C268.4 309 266.5 310.9 264.2 310.9C261.9 310.9 260 309 260 306.7C260 304.4 261.9 302.5 264.2 302.5Z" fill="#F2E8DC"/>
<path d="M257.3 174.6C254.1 174.6 251.5 176.8 250.7 179.8H240L254.7 160.3C255.5 160.6 256.4 160.8 257.3 160.8C261.1 160.8 264.2 157.7 264.2 153.9C264.2 150.1 261.1 147 257.3 147C253.5 147 250.4 150.1 250.4 153.9C250.4 155.5 251 157 252 158.1L235.7 179.8H222.4C221.6 176.8 219 174.6 215.8 174.6C212 174.6 208.9 177.7 208.9 181.5C208.9 183.2 209.6 184.7 210.6 185.9L197.8 203.8L188.1 201.9C187.9 198.3 184.9 195.4 181.3 195.4C177.5 195.4 174.4 198.5 174.4 202.3C174.4 206.1 177.5 209.2 181.3 209.2C184 209.2 186.3 207.6 187.5 205.3L195.7 206.9L183.8 223.5C183 223.2 182.2 223 181.3 223C177.5 223 174.4 226.1 174.4 229.9C174.4 233.7 177.5 236.8 181.3 236.8C185.1 236.8 188.2 233.7 188.2 229.9C188.2 228.2 187.5 226.7 186.5 225.5L199.3 207.6L209 209.5C209.2 213.1 212.2 216 215.8 216C219.6 216 222.7 212.9 222.7 209.1C222.7 207.5 222.1 206 221.1 204.9L237.4 183.2H250.7C251.5 186.2 254.1 188.4 257.3 188.4C261.1 188.4 264.2 185.3 264.2 181.5C264.2 177.7 261.1 174.6 257.3 174.6Z" fill="#A43494"/>
<path d="M218.4 202.8C217.6 202.5 216.7 202.3 215.8 202.3C213.1 202.3 210.8 203.9 209.6 206.2L201.4 204.6L213.3 188C214.1 188.3 214.9 188.5 215.8 188.5C219 188.5 221.6 186.3 222.4 183.3H233.1L218.4 202.8Z" fill="white"/>
<path d="M264.2 250.7V257.6H153.6V146.9H160.5V250.7H264.2Z" fill="#A43494"/>
<path d="M311.1 245.8L303.4 259.1C295.2 253.7 289.8 244.4 289.8 233.8C289.8 217.7 302.4 204.5 318.3 203.5V218.8C310.8 219.7 305 226.1 305 233.8C305 238.7 307.4 243.1 311.1 245.8Z" fill="#2DFCEC"/>
<path d="M332.3 224.6L345.6 216.9C340.5 209.2 332 204 322.2 203.4V218.7C326.3 219.3 329.9 221.5 332.3 224.6Z" fill="#A43494"/>
<path d="M347.4 220.3L334.2 227.9C335 229.7 335.4 231.7 335.4 233.8C335.4 242.2 328.6 249 320.2 249C318.1 249 316.1 248.6 314.3 247.8L306.7 261C310.8 263 315.3 264.2 320.2 264.2C337 264.2 350.6 250.6 350.6 233.8C350.6 228.9 349.5 224.3 347.4 220.3Z" fill="#2DFCEC"/>
<path d="M320.4 165.1H349.7C349.7 148.9 336.6 135.8 320.4 135.8V165.1Z" fill="#2DFCEC"/>
<path d="M316.7 168.7V136C302.3 137.8 291.1 150.1 291.1 165C291.1 181.2 304.2 194.3 320.4 194.3C335.3 194.3 347.6 183.1 349.4 168.7H316.7Z" fill="#A43494"/>
</svg>
