<svg width="103" height="103" viewBox="0 0 103 103" fill="none" xmlns="http://www.w3.org/2000/svg">
<path d="M48.4 0.299805C46.4 0.299805 44 0.599805 42.8 0.799805C35.5 1.9998 28.5 4.8998 22.5 8.9998C13.2 15.2998 6.09999 24.7998 2.59999 35.4998C-1.50001 48.0998 -0.50001 62.1998 5.19999 73.9998C10.7 85.1998 20.4 94.3998 31.9 99.0998C41.6 103.1 52.5 104 62.7 101.7C75.1 98.8998 86.2 91.3998 93.5 81.0998C98.9 73.3998 102.2 64.0998 102.8 54.6998C102.8 53.8998 102.6 53.0998 102 52.4998C101.4 51.8998 100.7 51.5998 99.9 51.5998H99.4C95.8 51.5998 90.3 51.5998 87 51.5998C85.5 51.5998 84.2 52.7998 84.1 54.2998C84 56.0998 83.7 57.7998 83.2 59.4998C81.2 67.3998 76.1 74.4998 69.3 78.9998C62.3 83.4998 53.6 85.1998 45.5 83.6998C37.4 82.1998 30 77.3998 25.1 70.7998C21.1 65.2998 18.9 58.3998 18.9 51.5998C18.9 42.6998 22.7 33.9998 29.1 27.8998C34.5 22.7998 41.5 19.6998 48.9 19.0998C50.4 18.9998 51.6 17.6998 51.6 16.1998V15.2998C51.6 11.7998 51.6 6.6998 51.6 3.3998C51.6 2.5998 51.3 1.7998 50.7 1.1998C50 0.599804 49.2 0.299805 48.4 0.299805ZM102.8 16.8998C102.8 7.7998 95.4 0.399805 86.3 0.399805C77.2 0.399805 69.8 7.7998 69.8 16.8998C69.8 25.9998 77.2 33.3998 86.3 33.3998C95.4 33.3998 102.8 25.9998 102.8 16.8998Z" fill="#FE3E6D"/>
</svg>
